<svg width="16" height="16" viewBox="0 0 16 16" fill="none" xmlns="http://www.w3.org/2000/svg">
<path fill-rule="evenodd" clip-rule="evenodd" d="M10.4714 2.19526C10.7318 2.45561 10.7318 2.87772 10.4714 3.13807L8.53781 5.07167L10.9283 7.46219L12.8619 5.5286C13.1223 5.26825 13.5444 5.26825 13.8047 5.5286C14.0651 5.78894 14.0651 6.21106 13.8047 6.4714L11.8711 8.405L12.4714 9.00526C12.5964 9.13029 12.6667 9.29986 12.6667 9.47667C12.6667 9.65348 12.5964 9.82305 12.4714 9.94807L11.1065 11.313C10.689 11.7458 10.1897 12.0915 9.63751 12.3298C9.08323 12.569 8.4868 12.6952 7.88314 12.7012C7.27947 12.7071 6.68069 12.5926 6.12182 12.3643C5.76999 12.2206 5.43843 12.0336 5.13455 11.8083L3.13807 13.8047C2.87772 14.0651 2.45561 14.0651 2.19526 13.8047C1.93491 13.5444 1.93491 13.1223 2.19526 12.8619L4.19174 10.8654C3.96642 10.5616 3.77944 10.23 3.63573 9.87818C3.40744 9.31931 3.29291 8.72053 3.29883 8.11686C3.30475 7.51319 3.43101 6.91677 3.67021 6.36249C3.90852 5.81029 4.25416 5.31096 4.68704 4.89349L6.05193 3.5286C6.31228 3.26825 6.73439 3.26825 6.99474 3.5286L7.595 4.12886L9.5286 2.19526C9.78895 1.93491 10.2111 1.93491 10.4714 2.19526ZM6.52333 4.94281L5.6254 5.84074L5.61607 5.84989C5.3087 6.14543 5.06336 6.4993 4.89441 6.8908C4.72546 7.2823 4.63628 7.70356 4.6321 8.12994C4.62792 8.55632 4.70881 8.97925 4.87005 9.37398C5.0313 9.76872 5.26965 10.1273 5.57116 10.4288C5.87266 10.7304 6.23128 10.9687 6.62602 11.1299C7.02075 11.2912 7.44368 11.3721 7.87006 11.3679C8.29644 11.3637 8.7177 11.2745 9.1092 11.1056C9.5007 10.9366 9.85457 10.6913 10.1501 10.3839L10.1593 10.3746L11.0572 9.47667L6.52333 4.94281Z" fill="#F39642"/>
</svg>
