<svg width="16" height="16" viewBox="0 0 16 16" fill="none" xmlns="http://www.w3.org/2000/svg">
<path fill-rule="evenodd" clip-rule="evenodd" d="M7.94341 1.33538C7.96207 1.33381 7.98094 1.33301 8 1.33301C9.76811 1.33301 11.4638 2.03539 12.714 3.28563C13.9643 4.53587 14.6667 6.23156 14.6667 7.99967C14.6667 9.76779 13.9643 11.4635 12.714 12.7137C11.4638 13.964 9.76811 14.6663 8 14.6663C7.96044 14.6663 7.92168 14.6629 7.88402 14.6563C7.47941 14.6509 7.07517 14.6087 6.67636 14.5296C6.3152 14.458 6.08045 14.1072 6.15205 13.7461C6.22364 13.3849 6.57446 13.1502 6.93562 13.2218C7.62032 13.3575 8.325 13.3575 9.00969 13.2218C9.05477 13.2128 9.09968 13.2087 9.14391 13.2089C9.76037 13.0735 10.3481 12.8297 10.8794 12.4889C10.8986 12.4729 10.919 12.4577 10.9404 12.4435C11.5245 12.0574 12.0269 11.5601 12.4189 10.9798C12.4309 10.962 12.4437 10.945 12.4571 10.9287C12.8175 10.3802 13.0736 9.76987 13.2125 9.12873C13.2146 9.10715 13.2178 9.08548 13.2221 9.06376C13.3585 8.37753 13.3585 7.67118 13.2221 6.98495C13.2135 6.94157 13.2093 6.89835 13.2092 6.85573C13.0738 6.23929 12.83 5.65155 12.4893 5.12027C12.4732 5.10104 12.458 5.08071 12.4439 5.0593C12.0578 4.47516 11.5604 3.97276 10.9802 3.58079C10.9623 3.56874 10.9453 3.55599 10.929 3.54258C10.3806 3.18224 9.77036 2.92616 9.12934 2.78726C9.10643 2.785 9.08341 2.78154 9.06036 2.77682C8.37491 2.63655 7.66855 2.63252 6.98155 2.76497C6.62001 2.83466 6.27043 2.59808 6.20073 2.23655C6.13104 1.87502 6.36762 1.52544 6.72915 1.45574C7.13033 1.3784 7.5368 1.33829 7.94341 1.33538ZM5.24817 2.63207C5.4512 2.93922 5.36679 3.3528 5.05963 3.55583C4.47548 3.94194 3.97309 4.4393 3.58111 5.01953C3.375 5.32463 2.96059 5.40487 2.6555 5.19877C2.3504 4.99266 2.27015 4.57825 2.47626 4.27315C2.96623 3.54786 3.59423 2.92616 4.32441 2.44352C4.63157 2.24049 5.04515 2.32491 5.24817 2.63207ZM8.29814 4.73672C8.62746 4.90138 8.76094 5.30183 8.59628 5.63115L7.74536 7.33301H9.33333C9.56439 7.33301 9.77896 7.45264 9.90043 7.64919C10.0219 7.84573 10.0329 8.09116 9.92962 8.29782L8.59628 10.9645C8.43163 11.2938 8.03118 11.4273 7.70186 11.2626C7.37254 11.098 7.23906 10.6975 7.40372 10.3682L8.25464 8.66634H6.66667C6.43562 8.66634 6.22104 8.54671 6.09957 8.35016C5.9781 8.15362 5.96705 7.90819 6.07038 7.70153L7.40372 5.03487C7.56837 4.70555 7.96882 4.57206 8.29814 4.73672ZM2.25393 6.15178C2.61506 6.22354 2.84964 6.57446 2.77788 6.93559C2.64153 7.62182 2.64153 8.32817 2.77788 9.01441C2.84964 9.37554 2.61506 9.72646 2.25393 9.79821C1.8928 9.86997 1.54187 9.63539 1.47012 9.27426C1.29967 8.41647 1.29967 7.53353 1.47012 6.67574C1.54187 6.31461 1.8928 6.08002 2.25393 6.15178ZM2.63239 10.7515C2.93955 10.5485 3.35313 10.6329 3.55615 10.94C3.94227 11.5242 4.43963 12.0266 5.01986 12.4186C5.32495 12.6247 5.4052 13.0391 5.19909 13.3442C4.99298 13.6493 4.57857 13.7295 4.27348 13.5234C3.54819 13.0334 2.92649 12.4055 2.44385 11.6753C2.24082 11.3681 2.32524 10.9545 2.63239 10.7515Z" fill="#4B9EAA"/>
</svg>
