<svg width="16" height="16" viewBox="0 0 16 16" fill="none" xmlns="http://www.w3.org/2000/svg">
<path fill-rule="evenodd" clip-rule="evenodd" d="M10.9813 1.41185C11.1981 1.52782 11.3334 1.75367 11.3335 1.9995L11.334 4.16967C12.0013 4.63486 12.5355 5.26589 12.8842 5.99968H13.3335C13.6871 5.99968 14.0262 6.14015 14.2763 6.3902C14.5263 6.64025 14.6668 6.97939 14.6668 7.33301V8.66634C14.6668 9.01996 14.5263 9.3591 14.2763 9.60915C14.0262 9.8592 13.6871 9.99968 13.3335 9.99968H12.8838C12.6617 10.4676 12.3632 10.8957 12.0001 11.2662V12.333C12.0001 12.775 11.8245 13.199 11.512 13.5115C11.1994 13.8241 10.7755 13.9997 10.3335 13.9997C9.89145 13.9997 9.46752 13.8241 9.15496 13.5115C8.92214 13.2787 8.76532 12.9841 8.70045 12.6662C8.68924 12.6663 8.67802 12.6663 8.66681 12.6663M8.66681 12.6663H6.00038C6.0003 12.6663 6.00045 12.6663 6.00038 12.6663C5.98916 12.6663 5.97771 12.6663 5.9665 12.6662C5.90163 12.9841 5.74481 13.2787 5.51199 13.5115C5.19943 13.8241 4.7755 13.9997 4.33347 13.9997C3.89145 13.9997 3.46752 13.8241 3.15496 13.5115C2.8424 13.199 2.66681 12.775 2.66681 12.333V11.2656C2.08009 10.6668 1.6641 9.91944 1.46534 9.10109C1.24225 8.1826 1.30334 7.21801 1.64051 6.33499C1.97768 5.45197 2.57504 4.69215 3.35353 4.1561C4.13202 3.62004 5.05494 3.33301 6.00014 3.33301H7.46496L10.297 1.44498C10.5016 1.30861 10.7645 1.29588 10.9813 1.41185M10.0005 3.24514L8.03661 4.55438C7.9271 4.62738 7.79842 4.66634 7.66681 4.66634H6.00014C5.325 4.66635 4.66577 4.87136 4.10971 5.25426C3.55365 5.63716 3.12696 6.17989 2.88612 6.81061C2.64529 7.44134 2.60166 8.13033 2.761 8.7864C2.92035 9.44247 3.27516 10.0347 3.77848 10.4847C3.92637 10.6169 4.00769 10.8081 4.00035 11.0064L4.00014 11.012V12.333C4.00014 12.4214 4.03526 12.5062 4.09777 12.5687C4.16029 12.6312 4.24507 12.6663 4.33347 12.6663C4.42188 12.6663 4.50666 12.6312 4.56918 12.5687C4.63169 12.5062 4.66681 12.4214 4.66681 12.333V11.9443C4.66681 11.7483 4.75311 11.5622 4.90277 11.4355C5.05242 11.3088 5.25025 11.2544 5.44362 11.2868C5.62744 11.3176 5.81352 11.3331 5.99991 11.333H8.66681C8.8532 11.3331 9.0395 11.3176 9.22333 11.2868C9.4167 11.2544 9.61453 11.3088 9.76418 11.4355C9.91383 11.5622 10.0001 11.7483 10.0001 11.9443V12.333C10.0001 12.4214 10.0353 12.5062 10.0978 12.5687C10.1603 12.6312 10.2451 12.6663 10.3335 12.6663C10.4219 12.6663 10.5067 12.6312 10.5692 12.5687C10.6317 12.5062 10.6668 12.4214 10.6668 12.333V10.9817C10.6668 10.792 10.7476 10.6113 10.889 10.4848C11.3066 10.1113 11.6234 9.63868 11.8104 9.11055C11.9046 8.84431 12.1564 8.66634 12.4388 8.66634H13.3335V7.33301H12.4395C12.1572 7.33301 11.9056 7.15527 11.8112 6.88927C11.5454 6.14016 11.0216 5.51014 10.3336 5.11204C10.1277 4.9929 10.0009 4.77307 10.0008 4.53518L10.0005 3.24514ZM10.0001 6.66634C10.3683 6.66634 10.6668 6.96482 10.6668 7.33301V7.33968C10.6668 7.70787 10.3683 8.00634 10.0001 8.00634C9.63195 8.00634 9.33348 7.70787 9.33348 7.33968V7.33301C9.33348 6.96482 9.63195 6.66634 10.0001 6.66634Z" fill="#3C9C41"/>
</svg>
