<svg width="16" height="16" viewBox="0 0 16 16" fill="none" xmlns="http://www.w3.org/2000/svg">
<path d="M13.2599 6.36653C13.2045 6.25659 13.1197 6.16413 13.015 6.09941C12.9103 6.0347 12.7897 6.00024 12.6666 5.99987H9.33324V1.99987C9.3404 1.85365 9.29923 1.70915 9.21609 1.58867C9.13296 1.46818 9.01247 1.3784 8.87324 1.3332C8.73939 1.28916 8.59503 1.28867 8.46088 1.33179C8.32673 1.3749 8.2097 1.45942 8.12657 1.5732L2.79324 8.90653C2.72642 9.00311 2.68629 9.11563 2.67693 9.23269C2.66756 9.34976 2.68929 9.46723 2.73991 9.5732C2.78652 9.69437 2.8675 9.79928 2.9729 9.87508C3.0783 9.95087 3.20354 9.99424 3.33324 9.99987H6.66657V13.9999C6.66668 14.1405 6.71122 14.2774 6.79384 14.3912C6.87645 14.5049 6.99292 14.5896 7.12657 14.6332C7.19356 14.654 7.26313 14.6652 7.33324 14.6665C7.43843 14.6668 7.54219 14.6422 7.63605 14.5947C7.7299 14.5472 7.81118 14.4781 7.87324 14.3932L13.2066 7.05987C13.2784 6.9604 13.3214 6.84304 13.3308 6.7207C13.3402 6.59837 13.3157 6.47582 13.2599 6.36653ZM7.99991 11.9465V9.3332C7.99991 9.15639 7.92967 8.98682 7.80465 8.86179C7.67962 8.73677 7.51005 8.66653 7.33324 8.66653H4.66657L7.99991 4.0532V6.66653C7.99991 6.84334 8.07015 7.01291 8.19517 7.13794C8.32019 7.26296 8.48976 7.3332 8.66657 7.3332H11.3332L7.99991 11.9465Z" fill="#3C9C41"/>
</svg>
