<svg width="16" height="16" viewBox="0 0 16 16" fill="none" xmlns="http://www.w3.org/2000/svg">
<path fill-rule="evenodd" clip-rule="evenodd" d="M14.4716 1.52827C14.7319 1.78862 14.7319 2.21073 14.4716 2.47108L13.251 3.69167C13.3447 3.84012 13.4255 3.9968 13.4924 4.16006C13.6444 4.53138 13.7211 4.92925 13.7178 5.33049C13.7145 5.73173 13.6315 6.1283 13.4734 6.49711C13.3161 6.86416 13.0877 7.19641 12.8013 7.47468L11.8049 8.47108C11.5446 8.73143 11.1224 8.73143 10.8621 8.47108L7.52876 5.13774C7.40373 5.01272 7.3335 4.84315 7.3335 4.66634C7.3335 4.48953 7.40373 4.31996 7.52876 4.19493L8.52516 3.19853C8.80343 2.91216 9.13567 2.68373 9.50272 2.52643C9.87153 2.36838 10.2681 2.2853 10.6693 2.28204C11.0706 2.27878 11.4685 2.35541 11.8398 2.50746C12.003 2.5743 12.1597 2.65514 12.3082 2.74886L13.5288 1.52827C13.7891 1.26792 14.2112 1.26792 14.4716 1.52827ZM11.7467 3.98306C11.6217 3.88359 11.483 3.80213 11.3345 3.74136C11.1269 3.65635 10.9045 3.61351 10.6802 3.61533C10.4558 3.61715 10.2341 3.6636 10.0279 3.75196C9.82174 3.84033 9.63519 3.96885 9.47916 4.13003L9.47157 4.13774L8.94297 4.66634L11.3335 7.05686L11.8621 6.52827L11.8698 6.52068C12.031 6.36465 12.1595 6.1781 12.2479 5.9719C12.3362 5.76571 12.3827 5.54399 12.3845 5.31967C12.3863 5.09534 12.3435 4.8729 12.2585 4.6653C12.1977 4.51687 12.1162 4.37816 12.0168 4.25317C11.9612 4.22315 11.909 4.18468 11.8621 4.13775C11.8152 4.09081 11.7767 4.03861 11.7467 3.98306ZM6.19543 6.8616C6.45577 6.60125 6.87788 6.60125 7.13823 6.8616C7.39858 7.12195 7.39858 7.54406 7.13823 7.80441L6.27632 8.66632L7.33352 9.72351L8.19543 8.8616C8.45577 8.60125 8.87788 8.60125 9.13823 8.8616C9.39858 9.12195 9.39858 9.54406 9.13823 9.80441L8.27632 10.6663L8.47161 10.8616C8.73196 11.122 8.73196 11.5441 8.47161 11.8044L7.47521 12.8008C7.19694 13.0872 6.86469 13.3156 6.49764 13.4729C6.12883 13.631 5.73225 13.714 5.33102 13.7173C4.92978 13.7206 4.53191 13.6439 4.16059 13.4919C3.99732 13.425 3.84063 13.3442 3.69217 13.2505L2.47157 14.4711C2.21122 14.7314 1.78911 14.7314 1.52876 14.4711C1.26841 14.2107 1.26841 13.7886 1.52876 13.5283L2.74937 12.3077C2.65566 12.1592 2.57483 12.0025 2.50798 11.8393C2.35594 11.468 2.27931 11.0701 2.28257 10.6689C2.28583 10.2676 2.3689 9.87104 2.52696 9.50224C2.68426 9.13518 2.91269 8.80294 3.19906 8.52467L4.19546 7.52827C4.32049 7.40325 4.49006 7.33301 4.66687 7.33301C4.84368 7.33301 5.01325 7.40325 5.13827 7.52827L5.33352 7.72351L6.19543 6.8616ZM4.66687 8.94248L4.13827 9.47108L4.13056 9.47867C3.96938 9.6347 3.84086 9.82125 3.75249 10.0274C3.66413 10.2336 3.61768 10.4554 3.61586 10.6797C3.61404 10.904 3.65688 11.1264 3.74188 11.3341C3.80267 11.4825 3.88413 11.6212 3.98362 11.7462C4.03915 11.7762 4.09132 11.8147 4.13823 11.8616C4.18515 11.9085 4.22362 11.9607 4.25363 12.0162C4.37863 12.1157 4.51737 12.1972 4.66583 12.258C4.87343 12.343 5.09587 12.3858 5.3202 12.384C5.54452 12.3822 5.76624 12.3357 5.97243 12.2474C6.17863 12.159 6.36517 12.0305 6.5212 11.8693L6.5288 11.8616L7.05739 11.333L6.8664 11.142C6.86496 11.1406 6.86352 11.1392 6.86209 11.1377C6.86066 11.1363 6.85924 11.1349 6.85783 11.1334L4.86639 9.14201C4.86495 9.14059 4.86352 9.13917 4.86209 9.13775C4.86066 9.13632 4.85924 9.13489 4.85783 9.13345L4.66687 8.94248Z" fill="#617177"/>
</svg>
